<?xml version="1.0" encoding="UTF-8"?>
<svg xmlns="http://www.w3.org/2000/svg" xmlns:xlink="http://www.w3.org/1999/xlink" width="80px" height="80px" viewBox="0 0 80 80" version="1.1">
<defs>
<radialGradient id="radial0" gradientUnits="userSpaceOnUse" cx="217.76" cy="3290.99" fx="217.76" fy="3290.99" r="4271.92" gradientTransform="matrix(0.0237763,0,0,0.0237763,-0.000000000000000676,0)">
<stop offset="0.09" style="stop-color:rgb(98.039216%,56.078431%,12.941176%);stop-opacity:1;"/>
<stop offset="0.78" style="stop-color:rgb(84.705882%,17.647059%,49.411765%);stop-opacity:1;"/>
</radialGradient>
<radialGradient id="radial1" gradientUnits="userSpaceOnUse" cx="2330.61" cy="3182.95" fx="2330.61" fy="3182.95" r="3759.33" gradientTransform="matrix(0.0237763,0,0,0.0237763,-0.000000000000000676,0)">
<stop offset="0.64" style="stop-color:rgb(54.901961%,22.745098%,66.666667%);stop-opacity:0;"/>
<stop offset="1" style="stop-color:rgb(54.901961%,22.745098%,66.666667%);stop-opacity:1;"/>
</radialGradient>
</defs>
<g id="surface1">
<path style=" stroke:none;fill-rule:nonzero;fill:url(#radial0);" d="M 20.285156 79.71875 C 15.527344 79.5 12.945312 78.707031 11.226562 78.039062 C 8.945312 77.152344 7.324219 76.097656 5.613281 74.390625 C 3.902344 72.683594 2.847656 71.058594 1.964844 68.78125 C 1.292969 67.0625 0.5 64.476562 0.285156 59.71875 C 0.046875 54.574219 0 53.03125 0 40.003906 C 0 26.972656 0.0507812 25.433594 0.28125 20.285156 C 0.5 15.527344 1.296875 12.949219 1.960938 11.226562 C 2.847656 8.945312 3.90625 7.324219 5.609375 5.609375 C 7.316406 3.902344 8.941406 2.84375 11.222656 1.960938 C 12.941406 1.292969 15.527344 0.5 20.285156 0.28125 C 25.429688 0.046875 26.972656 0 40 0 C 53.027344 0 54.570312 0.0507812 59.714844 0.28125 C 64.472656 0.5 67.054688 1.296875 68.777344 1.960938 C 71.054688 2.84375 72.679688 3.902344 74.390625 5.609375 C 76.097656 7.316406 77.152344 8.945312 78.039062 11.222656 C 78.707031 12.941406 79.5 15.527344 79.71875 20.285156 C 79.953125 25.429688 80 26.972656 80 40 C 80 53.027344 79.953125 54.570312 79.71875 59.71875 C 79.5 64.476562 78.703125 67.0625 78.039062 68.78125 C 77.152344 71.058594 76.097656 72.683594 74.390625 74.390625 C 72.683594 76.097656 71.054688 77.152344 68.777344 78.039062 C 67.058594 78.707031 64.472656 79.5 59.714844 79.71875 C 54.574219 79.953125 53.027344 80 40 80 C 26.972656 80 25.429688 79.953125 20.285156 79.71875 "/>
<path style=" stroke:none;fill-rule:nonzero;fill:url(#radial1);" d="M 20.285156 79.71875 C 15.527344 79.5 12.945312 78.707031 11.226562 78.039062 C 8.945312 77.152344 7.324219 76.097656 5.613281 74.390625 C 3.902344 72.683594 2.847656 71.058594 1.964844 68.78125 C 1.292969 67.0625 0.5 64.476562 0.285156 59.71875 C 0.046875 54.574219 0 53.03125 0 40.003906 C 0 26.972656 0.0507812 25.433594 0.28125 20.285156 C 0.5 15.527344 1.296875 12.949219 1.960938 11.226562 C 2.847656 8.945312 3.90625 7.324219 5.609375 5.609375 C 7.316406 3.902344 8.941406 2.84375 11.222656 1.960938 C 12.941406 1.292969 15.527344 0.5 20.285156 0.28125 C 25.429688 0.046875 26.972656 0 40 0 C 53.027344 0 54.570312 0.0507812 59.714844 0.28125 C 64.472656 0.5 67.054688 1.296875 68.777344 1.960938 C 71.054688 2.84375 72.679688 3.902344 74.390625 5.609375 C 76.097656 7.316406 77.152344 8.945312 78.039062 11.222656 C 78.707031 12.941406 79.5 15.527344 79.71875 20.285156 C 79.953125 25.429688 80 26.972656 80 40 C 80 53.027344 79.953125 54.570312 79.71875 59.71875 C 79.5 64.476562 78.703125 67.0625 78.039062 68.78125 C 77.152344 71.058594 76.097656 72.683594 74.390625 74.390625 C 72.683594 76.097656 71.054688 77.152344 68.777344 78.039062 C 67.058594 78.707031 64.472656 79.5 59.714844 79.71875 C 54.574219 79.953125 53.027344 80 40 80 C 26.972656 80 25.429688 79.953125 20.285156 79.71875 "/>
<path style=" stroke:none;fill-rule:nonzero;fill:rgb(100%,100%,100%);fill-opacity:1;" d="M 30.179688 40.171875 C 30.179688 34.699219 34.613281 30.261719 40.082031 30.261719 C 45.554688 30.261719 49.992188 34.699219 49.992188 40.171875 C 49.992188 45.640625 45.554688 50.078125 40.082031 50.078125 C 34.613281 50.078125 30.179688 45.640625 30.179688 40.171875 M 24.820312 40.171875 C 24.820312 48.597656 31.65625 55.429688 40.082031 55.429688 C 48.511719 55.429688 55.34375 48.597656 55.34375 40.171875 C 55.34375 31.742188 48.511719 24.910156 40.082031 24.910156 C 31.65625 24.910156 24.824219 31.742188 24.824219 40.171875 M 52.382812 24.304688 C 52.382812 26.273438 53.976562 27.871094 55.945312 27.871094 C 57.917969 27.871094 59.515625 26.277344 59.515625 24.308594 C 59.515625 22.335938 57.917969 20.738281 55.949219 20.738281 C 53.980469 20.742188 52.382812 22.335938 52.382812 24.304688 M 28.078125 64.363281 C 25.179688 64.230469 23.605469 63.746094 22.558594 63.339844 C 21.167969 62.800781 20.179688 62.15625 19.136719 61.117188 C 18.097656 60.078125 17.453125 59.089844 16.914062 57.699219 C 16.507812 56.65625 16.023438 55.078125 15.894531 52.179688 C 15.75 49.046875 15.71875 48.109375 15.71875 40.171875 C 15.71875 32.234375 15.75 31.296875 15.894531 28.160156 C 16.023438 25.261719 16.511719 23.691406 16.914062 22.640625 C 17.457031 21.253906 18.097656 20.261719 19.136719 19.222656 C 20.179688 18.183594 21.167969 17.539062 22.558594 17 C 23.601562 16.589844 25.179688 16.109375 28.078125 15.976562 C 31.207031 15.832031 32.148438 15.804688 40.082031 15.804688 C 48.015625 15.804688 48.957031 15.835938 52.09375 15.976562 C 54.992188 16.109375 56.5625 16.597656 57.613281 17 C 59 17.539062 59.992188 18.183594 61.03125 19.222656 C 62.074219 20.261719 62.714844 21.253906 63.253906 22.640625 C 63.664062 23.6875 64.144531 25.261719 64.277344 28.160156 C 64.421875 31.296875 64.449219 32.234375 64.449219 40.171875 C 64.449219 48.109375 64.421875 49.046875 64.277344 52.183594 C 64.144531 55.078125 63.660156 56.65625 63.253906 57.703125 C 62.714844 59.089844 62.070312 60.078125 61.03125 61.117188 C 59.992188 62.15625 59 62.800781 57.613281 63.339844 C 56.566406 63.75 54.992188 64.230469 52.09375 64.363281 C 48.960938 64.507812 48.019531 64.535156 40.082031 64.535156 C 32.144531 64.535156 31.207031 64.507812 28.078125 64.363281 M 27.832031 10.628906 C 24.667969 10.773438 22.503906 11.277344 20.617188 12.011719 C 18.660156 12.769531 17.003906 13.789062 15.351562 15.4375 C 13.699219 17.089844 12.683594 18.746094 11.921875 20.703125 C 11.1875 22.59375 10.6875 24.753906 10.542969 27.917969 C 10.394531 31.085938 10.363281 32.097656 10.363281 40.171875 C 10.363281 48.242188 10.394531 49.253906 10.542969 52.421875 C 10.6875 55.585938 11.1875 57.75 11.921875 59.636719 C 12.683594 61.589844 13.699219 63.25 15.351562 64.902344 C 17.003906 66.554688 18.660156 67.570312 20.617188 68.332031 C 22.507812 69.066406 24.667969 69.566406 27.832031 69.710938 C 31 69.855469 32.011719 69.890625 40.082031 69.890625 C 48.15625 69.890625 49.167969 69.855469 52.335938 69.710938 C 55.5 69.566406 57.660156 69.066406 59.550781 68.332031 C 61.503906 67.570312 63.160156 66.554688 64.816406 64.902344 C 66.46875 63.25 67.480469 61.589844 68.242188 59.636719 C 68.976562 57.75 69.480469 55.585938 69.625 52.421875 C 69.769531 49.253906 69.800781 48.242188 69.800781 40.171875 C 69.800781 32.097656 69.769531 31.085938 69.625 27.917969 C 69.480469 24.753906 68.976562 22.589844 68.242188 20.703125 C 67.480469 18.75 66.464844 17.09375 64.816406 15.4375 C 63.164062 13.785156 61.503906 12.769531 59.550781 12.011719 C 57.660156 11.277344 55.5 10.773438 52.339844 10.628906 C 49.167969 10.484375 48.15625 10.449219 40.085938 10.449219 C 32.015625 10.449219 31 10.484375 27.832031 10.628906 "/>
</g>
</svg>
