<?xml version="1.0" encoding="UTF-8"?>
<svg xmlns="http://www.w3.org/2000/svg" xmlns:xlink="http://www.w3.org/1999/xlink" width="40px" height="40px" viewBox="0 0 40 40" version="1.1">
<defs>
<radialGradient id="radial0" gradientUnits="userSpaceOnUse" cx="217.76" cy="3290.99" fx="217.76" fy="3290.99" r="4271.92" gradientTransform="matrix(0.0118881,0,0,0.0118881,-0.000000000000000338,0)">
<stop offset="0.09" style="stop-color:rgb(98.039216%,56.078431%,12.941176%);stop-opacity:1;"/>
<stop offset="0.78" style="stop-color:rgb(84.705882%,17.647059%,49.411765%);stop-opacity:1;"/>
</radialGradient>
<radialGradient id="radial1" gradientUnits="userSpaceOnUse" cx="2330.61" cy="3182.95" fx="2330.61" fy="3182.95" r="3759.33" gradientTransform="matrix(0.0118881,0,0,0.0118881,-0.000000000000000338,0)">
<stop offset="0.64" style="stop-color:rgb(54.901961%,22.745098%,66.666667%);stop-opacity:0;"/>
<stop offset="1" style="stop-color:rgb(54.901961%,22.745098%,66.666667%);stop-opacity:1;"/>
</radialGradient>
</defs>
<g id="surface1">
<path style=" stroke:none;fill-rule:nonzero;fill:url(#radial0);" d="M 10.144531 39.859375 C 7.765625 39.75 6.472656 39.355469 5.613281 39.019531 C 4.472656 38.574219 3.660156 38.046875 2.808594 37.195312 C 1.953125 36.339844 1.421875 35.527344 0.980469 34.390625 C 0.648438 33.53125 0.25 32.238281 0.144531 29.859375 C 0.0234375 27.289062 0 26.515625 0 20 C 0 13.488281 0.0273438 12.714844 0.140625 10.144531 C 0.25 7.765625 0.648438 6.472656 0.980469 5.613281 C 1.425781 4.472656 1.953125 3.660156 2.804688 2.804688 C 3.660156 1.953125 4.472656 1.421875 5.609375 0.980469 C 6.472656 0.644531 7.761719 0.25 10.140625 0.140625 C 12.714844 0.0234375 13.488281 0 20 0 C 26.515625 0 27.285156 0.0273438 29.859375 0.140625 C 32.238281 0.25 33.527344 0.648438 34.390625 0.980469 C 35.527344 1.421875 36.339844 1.953125 37.195312 2.804688 C 38.050781 3.660156 38.574219 4.472656 39.019531 5.609375 C 39.355469 6.472656 39.75 7.761719 39.859375 10.140625 C 39.976562 12.714844 40 13.484375 40 20 C 40 26.511719 39.976562 27.285156 39.859375 29.859375 C 39.75 32.238281 39.351562 33.53125 39.019531 34.390625 C 38.574219 35.527344 38.046875 36.339844 37.195312 37.195312 C 36.339844 38.046875 35.527344 38.574219 34.390625 39.019531 C 33.527344 39.355469 32.238281 39.75 29.859375 39.859375 C 27.285156 39.976562 26.515625 40 20 40 C 13.488281 40 12.714844 39.976562 10.144531 39.859375 "/>
<path style=" stroke:none;fill-rule:nonzero;fill:url(#radial1);" d="M 10.144531 39.859375 C 7.765625 39.75 6.472656 39.355469 5.613281 39.019531 C 4.472656 38.574219 3.660156 38.046875 2.808594 37.195312 C 1.953125 36.339844 1.421875 35.527344 0.980469 34.390625 C 0.648438 33.53125 0.25 32.238281 0.144531 29.859375 C 0.0234375 27.289062 0 26.515625 0 20 C 0 13.488281 0.0273438 12.714844 0.140625 10.144531 C 0.25 7.765625 0.648438 6.472656 0.980469 5.613281 C 1.425781 4.472656 1.953125 3.660156 2.804688 2.804688 C 3.660156 1.953125 4.472656 1.421875 5.609375 0.980469 C 6.472656 0.644531 7.761719 0.25 10.140625 0.140625 C 12.714844 0.0234375 13.488281 0 20 0 C 26.515625 0 27.285156 0.0273438 29.859375 0.140625 C 32.238281 0.25 33.527344 0.648438 34.390625 0.980469 C 35.527344 1.421875 36.339844 1.953125 37.195312 2.804688 C 38.050781 3.660156 38.574219 4.472656 39.019531 5.609375 C 39.355469 6.472656 39.75 7.761719 39.859375 10.140625 C 39.976562 12.714844 40 13.484375 40 20 C 40 26.511719 39.976562 27.285156 39.859375 29.859375 C 39.75 32.238281 39.351562 33.53125 39.019531 34.390625 C 38.574219 35.527344 38.046875 36.339844 37.195312 37.195312 C 36.339844 38.046875 35.527344 38.574219 34.390625 39.019531 C 33.527344 39.355469 32.238281 39.75 29.859375 39.859375 C 27.285156 39.976562 26.515625 40 20 40 C 13.488281 40 12.714844 39.976562 10.144531 39.859375 "/>
<path style=" stroke:none;fill-rule:nonzero;fill:rgb(100%,100%,100%);fill-opacity:1;" d="M 15.089844 20.085938 C 15.089844 17.351562 17.304688 15.132812 20.042969 15.132812 C 22.777344 15.132812 24.996094 17.351562 24.996094 20.085938 C 24.996094 22.820312 22.777344 25.039062 20.042969 25.039062 C 17.304688 25.039062 15.089844 22.820312 15.089844 20.085938 M 12.410156 20.085938 C 12.410156 24.300781 15.828125 27.714844 20.042969 27.714844 C 24.257812 27.714844 27.671875 24.300781 27.671875 20.085938 C 27.671875 15.871094 24.257812 12.453125 20.042969 12.453125 C 15.828125 12.453125 12.410156 15.871094 12.410156 20.085938 M 26.191406 12.152344 C 26.191406 13.136719 26.988281 13.9375 27.972656 13.9375 C 28.957031 13.9375 29.757812 13.136719 29.757812 12.152344 C 29.757812 11.167969 28.960938 10.371094 27.976562 10.371094 L 27.972656 10.371094 C 26.988281 10.371094 26.191406 11.167969 26.191406 12.152344 M 14.039062 32.179688 C 12.589844 32.113281 11.800781 31.875 11.277344 31.671875 C 10.585938 31.398438 10.089844 31.078125 9.570312 30.558594 C 9.046875 30.039062 8.726562 29.542969 8.457031 28.851562 C 8.253906 28.328125 8.011719 27.539062 7.945312 26.089844 C 7.875 24.523438 7.859375 24.054688 7.859375 20.085938 C 7.859375 16.117188 7.875 15.648438 7.945312 14.082031 C 8.011719 12.632812 8.253906 11.84375 8.457031 11.320312 C 8.726562 10.625 9.050781 10.132812 9.570312 9.609375 C 10.089844 9.089844 10.582031 8.769531 11.277344 8.5 C 11.800781 8.296875 12.589844 8.054688 14.039062 7.988281 C 15.605469 7.917969 16.074219 7.902344 20.042969 7.902344 C 24.007812 7.902344 24.480469 7.917969 26.046875 7.988281 C 27.496094 8.054688 28.28125 8.296875 28.804688 8.5 C 29.5 8.769531 29.996094 9.09375 30.515625 9.613281 C 31.035156 10.132812 31.355469 10.628906 31.628906 11.320312 C 31.832031 11.84375 32.074219 12.632812 32.136719 14.082031 C 32.210938 15.648438 32.226562 16.117188 32.226562 20.085938 C 32.226562 24.054688 32.210938 24.523438 32.136719 26.089844 C 32.074219 27.539062 31.828125 28.328125 31.628906 28.851562 C 31.355469 29.542969 31.035156 30.039062 30.515625 30.558594 C 29.996094 31.078125 29.5 31.398438 28.804688 31.671875 C 28.285156 31.875 27.496094 32.117188 26.046875 32.179688 C 24.480469 32.253906 24.011719 32.269531 20.042969 32.269531 C 16.074219 32.269531 15.605469 32.253906 14.039062 32.179688 M 13.914062 5.316406 C 12.332031 5.386719 11.253906 5.636719 10.308594 6.003906 C 9.332031 6.382812 8.503906 6.894531 7.675781 7.71875 C 6.847656 8.546875 6.339844 9.375 5.960938 10.351562 C 5.59375 11.296875 5.34375 12.375 5.269531 13.957031 C 5.199219 15.542969 5.179688 16.050781 5.179688 20.085938 C 5.179688 24.121094 5.199219 24.628906 5.269531 26.210938 C 5.34375 27.792969 5.59375 28.875 5.960938 29.820312 C 6.339844 30.796875 6.847656 31.625 7.675781 32.449219 C 8.503906 33.277344 9.328125 33.785156 10.308594 34.164062 C 11.253906 34.53125 12.332031 34.785156 13.914062 34.855469 C 15.5 34.925781 16.007812 34.945312 20.042969 34.945312 C 24.078125 34.945312 24.582031 34.929688 26.167969 34.855469 C 27.75 34.785156 28.832031 34.53125 29.773438 34.164062 C 30.753906 33.785156 31.582031 33.277344 32.40625 32.449219 C 33.234375 31.625 33.742188 30.796875 34.121094 29.820312 C 34.488281 28.875 34.742188 27.792969 34.8125 26.210938 C 34.882812 24.625 34.902344 24.121094 34.902344 20.085938 C 34.902344 16.050781 34.882812 15.542969 34.8125 13.957031 C 34.738281 12.375 34.488281 11.296875 34.121094 10.351562 C 33.742188 9.375 33.234375 8.546875 32.40625 7.71875 C 31.582031 6.890625 30.753906 6.382812 29.777344 6.003906 C 28.832031 5.636719 27.75 5.386719 26.167969 5.316406 C 24.585938 5.242188 24.078125 5.226562 20.042969 5.226562 C 16.007812 5.226562 15.5 5.242188 13.914062 5.316406 "/>
</g>
</svg>
